<?xml version="1.0" standalone="no"?>
<!DOCTYPE svg PUBLIC "-//W3C//DTD SVG 20010904//EN"
 "http://www.w3.org/TR/2001/REC-SVG-20010904/DTD/svg10.dtd">
<svg version="1.0" xmlns="http://www.w3.org/2000/svg"
 width="16.000000pt" height="16.000000pt" viewBox="0 0 16.000000 16.000000"
 preserveAspectRatio="xMidYMid meet">
<metadata>
Created by potrace 1.11, written by Peter Selinger 2001-2013
</metadata>
<g transform="translate(0.000000,16.000000) scale(0.005000,-0.005000)"
fill="#000000" stroke="none">
<path d="M1415 3160 c-49 -8 -89 -15 -150 -26 -74 -13 -239 -70 -332 -114
-481 -227 -810 -672 -888 -1205 -13 -89 -13 -356 0 -440 19 -121 83 -344 120
-415 7 -14 25 -50 40 -80 27 -53 131 -220 144 -230 3 -3 18 -21 32 -40 38 -51
163 -174 239 -236 113 -91 242 -166 410 -237 35 -15 178 -59 235 -72 206 -48
517 -41 725 15 25 7 52 13 60 15 9 2 56 19 106 38 514 199 869 619 985 1167
31 148 33 431 4 585 -25 132 -80 296 -137 409 -36 72 -141 243 -157 256 -3 3
-22 25 -42 50 -213 263 -549 467 -879 534 -41 8 -88 18 -105 21 -45 10 -353
13 -410 5z"/>
</g>
</svg>
